<?xml version="1.0" encoding="UTF-8" standalone="no"?>
<svg
   xmlns:dc="http://purl.org/dc/elements/1.1/"
   xmlns:cc="http://creativecommons.org/ns#"
   xmlns:rdf="http://www.w3.org/1999/02/22-rdf-syntax-ns#"
   xmlns:svg="http://www.w3.org/2000/svg"
   xmlns="http://www.w3.org/2000/svg"
   xmlns:sodipodi="http://sodipodi.sourceforge.net/DTD/sodipodi-0.dtd"
   xmlns:inkscape="http://www.inkscape.org/namespaces/inkscape"
   data-name="Layer 1"
   id="Layer_1"
   viewBox="0 0 77.723778 30.000027"
   version="1.1"
   sodipodi:docname="SDFEater.svg"
   inkscape:export-filename="/home/lukasz/NetBeansProjects/SDFEater/logo/SDFEater.png"
   inkscape:export-xdpi="750"
   inkscape:export-ydpi="750"
   inkscape:version="0.92.3 (unknown)"
   width="77.723778"
   height="30.000027">
  <metadata
     id="metadata32">
    <rdf:RDF>
      <cc:Work
         rdf:about="">
        <dc:format>image/svg+xml</dc:format>
        <dc:type
           rdf:resource="http://purl.org/dc/dcmitype/StillImage" />
        <dc:title />
      </cc:Work>
    </rdf:RDF>
  </metadata>
  <sodipodi:namedview
     pagecolor="#ffffff"
     bordercolor="#666666"
     borderopacity="1"
     objecttolerance="10"
     gridtolerance="10"
     guidetolerance="10"
     inkscape:pageopacity="0"
     inkscape:pageshadow="2"
     inkscape:window-width="1319"
     inkscape:window-height="744"
     id="namedview30"
     showgrid="false"
     inkscape:zoom="7.9999996"
     inkscape:cx="34.015765"
     inkscape:cy="21.459442"
     inkscape:window-x="47"
     inkscape:window-y="24"
     inkscape:window-maximized="1"
     inkscape:current-layer="g870"
     showguides="false"
     fit-margin-top="0"
     fit-margin-left="0"
     fit-margin-right="0"
     fit-margin-bottom="0" />
  <defs
     id="defs17">
    <style
       id="style2">.cls-1{fill:url(#linear-gradient);}.cls-2{fill:#fff;}.cls-3{fill:#1282ff;}</style>
    <linearGradient
       gradientUnits="userSpaceOnUse"
       id="linear-gradient"
       x1="14"
       x2="14"
       y1="2"
       y2="30"
       gradientTransform="translate(-0.98806918,-1.0000047)">
      <stop
         offset="0.24"
         stop-color="#cdeaff"
         id="stop4" />
      <stop
         offset="0.34"
         stop-color="#c2e4ff"
         id="stop6" />
      <stop
         offset="0.5"
         stop-color="#a5d5ff"
         id="stop8" />
      <stop
         offset="0.72"
         stop-color="#76bcff"
         id="stop10" />
      <stop
         offset="0.98"
         stop-color="#369aff"
         id="stop12" />
      <stop
         offset="1"
         stop-color="#3197ff"
         id="stop14" />
    </linearGradient>
    <clipPath
       id="p.0">
      <path
         style="clip-rule:nonzero"
         inkscape:connector-curvature="0"
         d="M 0,0 H 349 V 378 H 0 Z"
         id="path2" />
    </clipPath>
  </defs>
  <path
     class="cls-1"
     d="m 15.011931,14.999995 10,-9.7999997 a 14,14 0 1 0 -0.2,19.7999997 z"
     id="path21"
     style="fill:url(#linear-gradient);fill-rule:nonzero"
     inkscape:export-xdpi="750"
     inkscape:export-ydpi="750"
     inkscape:connector-curvature="0"
     inkscape:export-filename="/home/lukasz/Pulpit/logo/SDFEater.png" />
  <circle
     class="cls-2"
     cx="12.51193"
     cy="8.4999952"
     r="1.5"
     id="circle23"
     inkscape:export-xdpi="750"
     inkscape:export-ydpi="750"
     style="fill:#ffffff"
     inkscape:export-filename="/home/lukasz/Pulpit/logo/SDFEater.png" />
  <path
     class="cls-3"
     d="m 15.011931,8.4999953 a 2.5,2.5 0 1 0 -2.5,2.4999997 2.5,2.5 0 0 0 2.5,-2.4999997 z m -2.5,0.88 a 0.88,0.88 0 1 1 0.88,-0.87 0.88,0.88 0 0 1 -0.88,0.87 z"
     id="path27"
     inkscape:export-xdpi="750"
     inkscape:export-ydpi="750"
     inkscape:connector-curvature="0"
     style="fill:#1282ff"
     inkscape:export-filename="/home/lukasz/Pulpit/logo/SDFEater.png" />
  <text
     xml:space="preserve"
     style="font-style:normal;font-weight:normal;font-size:40px;line-height:125%;font-family:sans-serif;letter-spacing:0px;word-spacing:0px;fill:#1282ff;fill-opacity:1;stroke:none;stroke-width:1px;stroke-linecap:butt;stroke-linejoin:miter;stroke-opacity:1"
     x="32.910236"
     y="19.62668"
     id="text925"
     inkscape:export-xdpi="750"
     inkscape:export-ydpi="750"
     inkscape:export-filename="/home/lukasz/NetBeansProjects/SDFEater/logo/SDFEater.png"><tspan
       sodipodi:role="line"
       id="tspan923"
       x="32.910236"
       y="19.62668"
       style="font-style:normal;font-variant:normal;font-weight:normal;font-stretch:normal;font-size:13.33333302px;font-family:'Ubuntu Condensed';-inkscape-font-specification:'Ubuntu Condensed, ';fill:#1282ff;fill-opacity:1">SDF<tspan
   style="fill:#e0995e;fill-opacity:1"
   id="tspan929">Eater</tspan></tspan></text>
  <text
     xml:space="preserve"
     style="font-style:normal;font-weight:normal;font-size:40px;line-height:125%;font-family:sans-serif;letter-spacing:0px;word-spacing:0px;fill:#000000;fill-opacity:1;stroke:none;stroke-width:1px;stroke-linecap:butt;stroke-linejoin:miter;stroke-opacity:1"
     x="51.007568"
     y="49.367561"
     id="text2781"><tspan
       sodipodi:role="line"
       id="tspan2779"
       x="51.007568"
       y="84.758186" /></text>
  <g
     transform="matrix(0.41622695,0,0,0.41622695,15.929097,44.91163)"
     id="g36" />
  <g
     transform="matrix(0.41622695,0,0,0.41622695,15.929097,44.91163)"
     id="g38" />
  <g
     transform="matrix(0.41622695,0,0,0.41622695,15.929097,44.91163)"
     id="g40" />
  <g
     transform="matrix(0.41622695,0,0,0.41622695,15.929097,44.91163)"
     id="g42" />
  <g
     transform="matrix(0.41622695,0,0,0.41622695,15.929097,44.91163)"
     id="g44" />
  <g
     transform="matrix(0.41622695,0,0,0.41622695,15.929097,44.91163)"
     id="g46" />
  <g
     transform="matrix(0.41622695,0,0,0.41622695,15.929097,44.91163)"
     id="g48" />
  <g
     transform="matrix(0.41622695,0,0,0.41622695,15.929097,44.91163)"
     id="g50" />
  <g
     transform="matrix(0.41622695,0,0,0.41622695,15.929097,44.91163)"
     id="g52" />
  <g
     transform="matrix(0.41622695,0,0,0.41622695,15.929097,44.91163)"
     id="g54" />
  <g
     transform="matrix(0.41622695,0,0,0.41622695,15.929097,44.91163)"
     id="g56" />
  <g
     transform="matrix(0.41622695,0,0,0.41622695,15.929097,44.91163)"
     id="g58" />
  <g
     transform="matrix(0.41622695,0,0,0.41622695,15.929097,44.91163)"
     id="g60" />
  <g
     transform="matrix(0.41622695,0,0,0.41622695,15.929097,44.91163)"
     id="g62" />
  <g
     transform="matrix(0.41622695,0,0,0.41622695,15.929097,44.91163)"
     id="g64" />
  <path
     class="cls-3"
     d="m 26.421931,5.2199953 -0.7,-0.71 a 15,15 0 1 0 -10.71,25.4899997 14.92,14.92 0 0 0 10.5,-4.29 l 0.71,-0.7 -9.8,-10 z m -3.05,19.7799997 a 13,13 0 1 1 -8.36,-22.9999997 12.89,12.89 0 0 1 8.56,3.21 l -9.97,9.7899997 z"
     id="path25"
     inkscape:export-xdpi="750"
     inkscape:export-ydpi="750"
     inkscape:connector-curvature="0"
     style="fill:#1282ff"
     inkscape:export-filename="/home/lukasz/Pulpit/logo/SDFEater.png" />
  <g
     id="g870"
     transform="translate(1.1444094e-8,1.4781952e-5)">
    <g
       id="g857">
      <circle
         style="fill:#e0995e;fill-opacity:1;stroke-width:1.0140624"
         id="path319"
         cx="24.987"
         cy="15.000012"
         r="5.4999995" />
      <text
         xml:space="preserve"
         style="font-style:normal;font-weight:normal;font-size:12.12262058px;line-height:125%;font-family:sans-serif;letter-spacing:0px;word-spacing:0px;fill:#ffffff;fill-opacity:1;stroke:#fffffe;stroke-width:0.19972549;stroke-linecap:butt;stroke-linejoin:miter;stroke-miterlimit:4;stroke-dasharray:none;stroke-opacity:1"
         x="19.48143"
         y="19.455978"
         id="text2853"
         transform="scale(1.0028777,0.99713056)"><tspan
           sodipodi:role="line"
           id="tspan2851"
           x="19.48143"
           y="19.455978"
           style="font-style:normal;font-variant:normal;font-weight:normal;font-stretch:normal;font-family:Ubuntu;-inkscape-font-specification:Ubuntu;fill:#ffffff;stroke:#fffffe;stroke-width:0.19972549;stroke-miterlimit:4;stroke-dasharray:none;stroke-opacity:1">⚛️</tspan></text>
    </g>
  </g>
</svg>
